<?xml version="1.0" encoding="UTF-8" standalone="no"?><svg xmlns="http://www.w3.org/2000/svg" xmlns:xlink="http://www.w3.org/1999/xlink" contentStyleType="text/css" height="738px" preserveAspectRatio="none" style="width:1031px;height:738px;background:#FFFFFF;" version="1.1" viewBox="0 0 1031 738" width="1031px" zoomAndPan="magnify"><defs/><g><!--MD5=[039e1d03603b43c0dd5a974c65879f44]
class basic_ios--><g id="elem_basic_ios"><rect fill="#F1F1F1" height="48" id="basic_ios" rx="2.5" ry="2.5" style="stroke:#181818;stroke-width:0.5;" width="96" x="394.5" y="176"/><ellipse cx="409.5" cy="192" fill="#ADD1B2" rx="11" ry="11" style="stroke:#181818;stroke-width:1.0;"/><path d="M411.8438,187.6719 C410.9063,187.2344 410.3125,187.0938 409.4375,187.0938 C406.8125,187.0938 404.8125,189.1719 404.8125,191.8906 L404.8125,193.0156 C404.8125,195.5938 406.9219,197.4844 409.8125,197.4844 C411.0313,197.4844 412.1875,197.1875 412.9375,196.6406 C413.5156,196.2344 413.8438,195.7813 413.8438,195.3906 C413.8438,194.9375 413.4531,194.5469 412.9844,194.5469 C412.7656,194.5469 412.5625,194.625 412.375,194.8125 C411.9219,195.2969 411.9219,195.2969 411.7344,195.3906 C411.3125,195.6563 410.625,195.7813 409.8594,195.7813 C407.8125,195.7813 406.5156,194.6875 406.5156,192.9844 L406.5156,191.8906 C406.5156,190.1094 407.7656,188.7969 409.5,188.7969 C410.0781,188.7969 410.6875,188.9531 411.1563,189.2031 C411.6406,189.4844 411.8125,189.7031 411.9063,190.1094 C411.9688,190.5156 412,190.6406 412.1406,190.7656 C412.2813,190.9063 412.5156,191.0156 412.7344,191.0156 C413,191.0156 413.2656,190.875 413.4375,190.6563 C413.5469,190.5 413.5781,190.3125 413.5781,189.8906 L413.5781,188.4688 C413.5781,188.0313 413.5625,187.9063 413.4688,187.75 C413.3125,187.4844 413.0313,187.3438 412.7344,187.3438 C412.4375,187.3438 412.2344,187.4375 412.0156,187.75 L411.8438,187.6719 Z " fill="#000000"/><text fill="#000000" font-family="sans-serif" font-size="14" lengthAdjust="spacing" textLength="64" x="423.5" y="196.8467">basic_ios</text><line style="stroke:#181818;stroke-width:0.5;" x1="395.5" x2="489.5" y1="208" y2="208"/><line style="stroke:#181818;stroke-width:0.5;" x1="395.5" x2="489.5" y1="216" y2="216"/></g><!--MD5=[174d0cced48ceedff20e942c8d6b56e7]
class ios_base--><g id="elem_ios_base"><rect fill="#F1F1F1" height="48" id="ios_base" rx="2.5" ry="2.5" style="stroke:#181818;stroke-width:0.5;" width="93" x="396" y="7"/><ellipse cx="411" cy="23" fill="#ADD1B2" rx="11" ry="11" style="stroke:#181818;stroke-width:1.0;"/><path d="M413.3438,18.6719 C412.4063,18.2344 411.8125,18.0938 410.9375,18.0938 C408.3125,18.0938 406.3125,20.1719 406.3125,22.8906 L406.3125,24.0156 C406.3125,26.5938 408.4219,28.4844 411.3125,28.4844 C412.5313,28.4844 413.6875,28.1875 414.4375,27.6406 C415.0156,27.2344 415.3438,26.7813 415.3438,26.3906 C415.3438,25.9375 414.9531,25.5469 414.4844,25.5469 C414.2656,25.5469 414.0625,25.625 413.875,25.8125 C413.4219,26.2969 413.4219,26.2969 413.2344,26.3906 C412.8125,26.6563 412.125,26.7813 411.3594,26.7813 C409.3125,26.7813 408.0156,25.6875 408.0156,23.9844 L408.0156,22.8906 C408.0156,21.1094 409.2656,19.7969 411,19.7969 C411.5781,19.7969 412.1875,19.9531 412.6563,20.2031 C413.1406,20.4844 413.3125,20.7031 413.4063,21.1094 C413.4688,21.5156 413.5,21.6406 413.6406,21.7656 C413.7813,21.9063 414.0156,22.0156 414.2344,22.0156 C414.5,22.0156 414.7656,21.875 414.9375,21.6563 C415.0469,21.5 415.0781,21.3125 415.0781,20.8906 L415.0781,19.4688 C415.0781,19.0313 415.0625,18.9063 414.9688,18.75 C414.8125,18.4844 414.5313,18.3438 414.2344,18.3438 C413.9375,18.3438 413.7344,18.4375 413.5156,18.75 L413.3438,18.6719 Z " fill="#000000"/><text fill="#000000" font-family="sans-serif" font-size="14" lengthAdjust="spacing" textLength="61" x="425" y="27.8467">ios_base</text><line style="stroke:#181818;stroke-width:0.5;" x1="397" x2="488" y1="39" y2="39"/><line style="stroke:#181818;stroke-width:0.5;" x1="397" x2="488" y1="47" y2="47"/></g><!--MD5=[5c7aaacfc0df5cb3279148f4b78c7b58]
class basic_ostream--><g id="elem_basic_ostream"><rect fill="#F1F1F1" height="48" id="basic_ostream" rx="2.5" ry="2.5" style="stroke:#181818;stroke-width:0.5;" width="136" x="590.5" y="345"/><ellipse cx="605.5" cy="361" fill="#ADD1B2" rx="11" ry="11" style="stroke:#181818;stroke-width:1.0;"/><path d="M607.8438,356.6719 C606.9063,356.2344 606.3125,356.0938 605.4375,356.0938 C602.8125,356.0938 600.8125,358.1719 600.8125,360.8906 L600.8125,362.0156 C600.8125,364.5938 602.9219,366.4844 605.8125,366.4844 C607.0313,366.4844 608.1875,366.1875 608.9375,365.6406 C609.5156,365.2344 609.8438,364.7813 609.8438,364.3906 C609.8438,363.9375 609.4531,363.5469 608.9844,363.5469 C608.7656,363.5469 608.5625,363.625 608.375,363.8125 C607.9219,364.2969 607.9219,364.2969 607.7344,364.3906 C607.3125,364.6563 606.625,364.7813 605.8594,364.7813 C603.8125,364.7813 602.5156,363.6875 602.5156,361.9844 L602.5156,360.8906 C602.5156,359.1094 603.7656,357.7969 605.5,357.7969 C606.0781,357.7969 606.6875,357.9531 607.1563,358.2031 C607.6406,358.4844 607.8125,358.7031 607.9063,359.1094 C607.9688,359.5156 608,359.6406 608.1406,359.7656 C608.2813,359.9063 608.5156,360.0156 608.7344,360.0156 C609,360.0156 609.2656,359.875 609.4375,359.6563 C609.5469,359.5 609.5781,359.3125 609.5781,358.8906 L609.5781,357.4688 C609.5781,357.0313 609.5625,356.9063 609.4688,356.75 C609.3125,356.4844 609.0313,356.3438 608.7344,356.3438 C608.4375,356.3438 608.2344,356.4375 608.0156,356.75 L607.8438,356.6719 Z " fill="#000000"/><text fill="#000000" font-family="sans-serif" font-size="14" lengthAdjust="spacing" textLength="104" x="619.5" y="365.8467">basic_ostream</text><line style="stroke:#181818;stroke-width:0.5;" x1="591.5" x2="725.5" y1="377" y2="377"/><line style="stroke:#181818;stroke-width:0.5;" x1="591.5" x2="725.5" y1="385" y2="385"/></g><!--MD5=[408d9644e56cfb2c546d272bb5a8de04]
class basic_istream--><g id="elem_basic_istream"><rect fill="#F1F1F1" height="48" id="basic_istream" rx="2.5" ry="2.5" style="stroke:#181818;stroke-width:0.5;" width="131" x="311" y="345"/><ellipse cx="326" cy="361" fill="#ADD1B2" rx="11" ry="11" style="stroke:#181818;stroke-width:1.0;"/><path d="M328.3438,356.6719 C327.4063,356.2344 326.8125,356.0938 325.9375,356.0938 C323.3125,356.0938 321.3125,358.1719 321.3125,360.8906 L321.3125,362.0156 C321.3125,364.5938 323.4219,366.4844 326.3125,366.4844 C327.5313,366.4844 328.6875,366.1875 329.4375,365.6406 C330.0156,365.2344 330.3438,364.7813 330.3438,364.3906 C330.3438,363.9375 329.9531,363.5469 329.4844,363.5469 C329.2656,363.5469 329.0625,363.625 328.875,363.8125 C328.4219,364.2969 328.4219,364.2969 328.2344,364.3906 C327.8125,364.6563 327.125,364.7813 326.3594,364.7813 C324.3125,364.7813 323.0156,363.6875 323.0156,361.9844 L323.0156,360.8906 C323.0156,359.1094 324.2656,357.7969 326,357.7969 C326.5781,357.7969 327.1875,357.9531 327.6563,358.2031 C328.1406,358.4844 328.3125,358.7031 328.4063,359.1094 C328.4688,359.5156 328.5,359.6406 328.6406,359.7656 C328.7813,359.9063 329.0156,360.0156 329.2344,360.0156 C329.5,360.0156 329.7656,359.875 329.9375,359.6563 C330.0469,359.5 330.0781,359.3125 330.0781,358.8906 L330.0781,357.4688 C330.0781,357.0313 330.0625,356.9063 329.9688,356.75 C329.8125,356.4844 329.5313,356.3438 329.2344,356.3438 C328.9375,356.3438 328.7344,356.4375 328.5156,356.75 L328.3438,356.6719 Z " fill="#000000"/><text fill="#000000" font-family="sans-serif" font-size="14" lengthAdjust="spacing" textLength="99" x="340" y="365.8467">basic_istream</text><line style="stroke:#181818;stroke-width:0.5;" x1="312" x2="441" y1="377" y2="377"/><line style="stroke:#181818;stroke-width:0.5;" x1="312" x2="441" y1="385" y2="385"/></g><!--MD5=[bcbcc94834baa78de4a771f2080c92ac]
class basic_iostream--><g id="elem_basic_iostream"><rect fill="#F1F1F1" height="48" id="basic_iostream" rx="2.5" ry="2.5" style="stroke:#181818;stroke-width:0.5;" width="140" x="440.5" y="514"/><ellipse cx="455.5" cy="530" fill="#ADD1B2" rx="11" ry="11" style="stroke:#181818;stroke-width:1.0;"/><path d="M457.8438,525.6719 C456.9063,525.2344 456.3125,525.0938 455.4375,525.0938 C452.8125,525.0938 450.8125,527.1719 450.8125,529.8906 L450.8125,531.0156 C450.8125,533.5938 452.9219,535.4844 455.8125,535.4844 C457.0313,535.4844 458.1875,535.1875 458.9375,534.6406 C459.5156,534.2344 459.8438,533.7813 459.8438,533.3906 C459.8438,532.9375 459.4531,532.5469 458.9844,532.5469 C458.7656,532.5469 458.5625,532.625 458.375,532.8125 C457.9219,533.2969 457.9219,533.2969 457.7344,533.3906 C457.3125,533.6563 456.625,533.7813 455.8594,533.7813 C453.8125,533.7813 452.5156,532.6875 452.5156,530.9844 L452.5156,529.8906 C452.5156,528.1094 453.7656,526.7969 455.5,526.7969 C456.0781,526.7969 456.6875,526.9531 457.1563,527.2031 C457.6406,527.4844 457.8125,527.7031 457.9063,528.1094 C457.9688,528.5156 458,528.6406 458.1406,528.7656 C458.2813,528.9063 458.5156,529.0156 458.7344,529.0156 C459,529.0156 459.2656,528.875 459.4375,528.6563 C459.5469,528.5 459.5781,528.3125 459.5781,527.8906 L459.5781,526.4688 C459.5781,526.0313 459.5625,525.9063 459.4688,525.75 C459.3125,525.4844 459.0313,525.3438 458.7344,525.3438 C458.4375,525.3438 458.2344,525.4375 458.0156,525.75 L457.8438,525.6719 Z " fill="#000000"/><text fill="#000000" font-family="sans-serif" font-size="14" lengthAdjust="spacing" textLength="108" x="469.5" y="534.8467">basic_iostream</text><line style="stroke:#181818;stroke-width:0.5;" x1="441.5" x2="579.5" y1="546" y2="546"/><line style="stroke:#181818;stroke-width:0.5;" x1="441.5" x2="579.5" y1="554" y2="554"/></g><!--MD5=[ec8ee934f24b094ad40b9989bafd9a92]
class basic_ostreamstream--><g id="elem_basic_ostreamstream"><rect fill="#F1F1F1" height="48" id="basic_ostreamstream" rx="2.5" ry="2.5" style="stroke:#181818;stroke-width:0.5;" width="187" x="616" y="514"/><ellipse cx="631" cy="530" fill="#ADD1B2" rx="11" ry="11" style="stroke:#181818;stroke-width:1.0;"/><path d="M633.3438,525.6719 C632.4063,525.2344 631.8125,525.0938 630.9375,525.0938 C628.3125,525.0938 626.3125,527.1719 626.3125,529.8906 L626.3125,531.0156 C626.3125,533.5938 628.4219,535.4844 631.3125,535.4844 C632.5313,535.4844 633.6875,535.1875 634.4375,534.6406 C635.0156,534.2344 635.3438,533.7813 635.3438,533.3906 C635.3438,532.9375 634.9531,532.5469 634.4844,532.5469 C634.2656,532.5469 634.0625,532.625 633.875,532.8125 C633.4219,533.2969 633.4219,533.2969 633.2344,533.3906 C632.8125,533.6563 632.125,533.7813 631.3594,533.7813 C629.3125,533.7813 628.0156,532.6875 628.0156,530.9844 L628.0156,529.8906 C628.0156,528.1094 629.2656,526.7969 631,526.7969 C631.5781,526.7969 632.1875,526.9531 632.6563,527.2031 C633.1406,527.4844 633.3125,527.7031 633.4063,528.1094 C633.4688,528.5156 633.5,528.6406 633.6406,528.7656 C633.7813,528.9063 634.0156,529.0156 634.2344,529.0156 C634.5,529.0156 634.7656,528.875 634.9375,528.6563 C635.0469,528.5 635.0781,528.3125 635.0781,527.8906 L635.0781,526.4688 C635.0781,526.0313 635.0625,525.9063 634.9688,525.75 C634.8125,525.4844 634.5313,525.3438 634.2344,525.3438 C633.9375,525.3438 633.7344,525.4375 633.5156,525.75 L633.3438,525.6719 Z " fill="#000000"/><text fill="#000000" font-family="sans-serif" font-size="14" lengthAdjust="spacing" textLength="155" x="645" y="534.8467">basic_ostreamstream</text><line style="stroke:#181818;stroke-width:0.5;" x1="617" x2="802" y1="546" y2="546"/><line style="stroke:#181818;stroke-width:0.5;" x1="617" x2="802" y1="554" y2="554"/></g><!--MD5=[6ef34773607697d549a254532dcdb236]
class basic_oftreamstream--><g id="elem_basic_oftreamstream"><rect fill="#F1F1F1" height="48" id="basic_oftreamstream" rx="2.5" ry="2.5" style="stroke:#181818;stroke-width:0.5;" width="186" x="838.5" y="514"/><ellipse cx="853.5" cy="530" fill="#ADD1B2" rx="11" ry="11" style="stroke:#181818;stroke-width:1.0;"/><path d="M855.8438,525.6719 C854.9063,525.2344 854.3125,525.0938 853.4375,525.0938 C850.8125,525.0938 848.8125,527.1719 848.8125,529.8906 L848.8125,531.0156 C848.8125,533.5938 850.9219,535.4844 853.8125,535.4844 C855.0313,535.4844 856.1875,535.1875 856.9375,534.6406 C857.5156,534.2344 857.8438,533.7813 857.8438,533.3906 C857.8438,532.9375 857.4531,532.5469 856.9844,532.5469 C856.7656,532.5469 856.5625,532.625 856.375,532.8125 C855.9219,533.2969 855.9219,533.2969 855.7344,533.3906 C855.3125,533.6563 854.625,533.7813 853.8594,533.7813 C851.8125,533.7813 850.5156,532.6875 850.5156,530.9844 L850.5156,529.8906 C850.5156,528.1094 851.7656,526.7969 853.5,526.7969 C854.0781,526.7969 854.6875,526.9531 855.1563,527.2031 C855.6406,527.4844 855.8125,527.7031 855.9063,528.1094 C855.9688,528.5156 856,528.6406 856.1406,528.7656 C856.2813,528.9063 856.5156,529.0156 856.7344,529.0156 C857,529.0156 857.2656,528.875 857.4375,528.6563 C857.5469,528.5 857.5781,528.3125 857.5781,527.8906 L857.5781,526.4688 C857.5781,526.0313 857.5625,525.9063 857.4688,525.75 C857.3125,525.4844 857.0313,525.3438 856.7344,525.3438 C856.4375,525.3438 856.2344,525.4375 856.0156,525.75 L855.8438,525.6719 Z " fill="#000000"/><text fill="#000000" font-family="sans-serif" font-size="14" lengthAdjust="spacing" textLength="154" x="867.5" y="534.8467">basic_oftreamstream</text><line style="stroke:#181818;stroke-width:0.5;" x1="839.5" x2="1023.5" y1="546" y2="546"/><line style="stroke:#181818;stroke-width:0.5;" x1="839.5" x2="1023.5" y1="554" y2="554"/></g><!--MD5=[e919f8ec44265586dd6a6d0447a469b4]
class basic_istreamstream--><g id="elem_basic_istreamstream"><rect fill="#F1F1F1" height="48" id="basic_istreamstream" rx="2.5" ry="2.5" style="stroke:#181818;stroke-width:0.5;" width="182" x="223.5" y="514"/><ellipse cx="238.5" cy="530" fill="#ADD1B2" rx="11" ry="11" style="stroke:#181818;stroke-width:1.0;"/><path d="M240.8438,525.6719 C239.9063,525.2344 239.3125,525.0938 238.4375,525.0938 C235.8125,525.0938 233.8125,527.1719 233.8125,529.8906 L233.8125,531.0156 C233.8125,533.5938 235.9219,535.4844 238.8125,535.4844 C240.0313,535.4844 241.1875,535.1875 241.9375,534.6406 C242.5156,534.2344 242.8438,533.7813 242.8438,533.3906 C242.8438,532.9375 242.4531,532.5469 241.9844,532.5469 C241.7656,532.5469 241.5625,532.625 241.375,532.8125 C240.9219,533.2969 240.9219,533.2969 240.7344,533.3906 C240.3125,533.6563 239.625,533.7813 238.8594,533.7813 C236.8125,533.7813 235.5156,532.6875 235.5156,530.9844 L235.5156,529.8906 C235.5156,528.1094 236.7656,526.7969 238.5,526.7969 C239.0781,526.7969 239.6875,526.9531 240.1563,527.2031 C240.6406,527.4844 240.8125,527.7031 240.9063,528.1094 C240.9688,528.5156 241,528.6406 241.1406,528.7656 C241.2813,528.9063 241.5156,529.0156 241.7344,529.0156 C242,529.0156 242.2656,528.875 242.4375,528.6563 C242.5469,528.5 242.5781,528.3125 242.5781,527.8906 L242.5781,526.4688 C242.5781,526.0313 242.5625,525.9063 242.4688,525.75 C242.3125,525.4844 242.0313,525.3438 241.7344,525.3438 C241.4375,525.3438 241.2344,525.4375 241.0156,525.75 L240.8438,525.6719 Z " fill="#000000"/><text fill="#000000" font-family="sans-serif" font-size="14" lengthAdjust="spacing" textLength="150" x="252.5" y="534.8467">basic_istreamstream</text><line style="stroke:#181818;stroke-width:0.5;" x1="224.5" x2="404.5" y1="546" y2="546"/><line style="stroke:#181818;stroke-width:0.5;" x1="224.5" x2="404.5" y1="554" y2="554"/></g><!--MD5=[4d714c2758161307d9d97e4edca53a5c]
class basic_iftreamstream--><g id="elem_basic_iftreamstream"><rect fill="#F1F1F1" height="48" id="basic_iftreamstream" rx="2.5" ry="2.5" style="stroke:#181818;stroke-width:0.5;" width="181" x="7" y="514"/><ellipse cx="22" cy="530" fill="#ADD1B2" rx="11" ry="11" style="stroke:#181818;stroke-width:1.0;"/><path d="M24.3438,525.6719 C23.4063,525.2344 22.8125,525.0938 21.9375,525.0938 C19.3125,525.0938 17.3125,527.1719 17.3125,529.8906 L17.3125,531.0156 C17.3125,533.5938 19.4219,535.4844 22.3125,535.4844 C23.5313,535.4844 24.6875,535.1875 25.4375,534.6406 C26.0156,534.2344 26.3438,533.7813 26.3438,533.3906 C26.3438,532.9375 25.9531,532.5469 25.4844,532.5469 C25.2656,532.5469 25.0625,532.625 24.875,532.8125 C24.4219,533.2969 24.4219,533.2969 24.2344,533.3906 C23.8125,533.6563 23.125,533.7813 22.3594,533.7813 C20.3125,533.7813 19.0156,532.6875 19.0156,530.9844 L19.0156,529.8906 C19.0156,528.1094 20.2656,526.7969 22,526.7969 C22.5781,526.7969 23.1875,526.9531 23.6563,527.2031 C24.1406,527.4844 24.3125,527.7031 24.4063,528.1094 C24.4688,528.5156 24.5,528.6406 24.6406,528.7656 C24.7813,528.9063 25.0156,529.0156 25.2344,529.0156 C25.5,529.0156 25.7656,528.875 25.9375,528.6563 C26.0469,528.5 26.0781,528.3125 26.0781,527.8906 L26.0781,526.4688 C26.0781,526.0313 26.0625,525.9063 25.9688,525.75 C25.8125,525.4844 25.5313,525.3438 25.2344,525.3438 C24.9375,525.3438 24.7344,525.4375 24.5156,525.75 L24.3438,525.6719 Z " fill="#000000"/><text fill="#000000" font-family="sans-serif" font-size="14" lengthAdjust="spacing" textLength="149" x="36" y="534.8467">basic_iftreamstream</text><line style="stroke:#181818;stroke-width:0.5;" x1="8" x2="187" y1="546" y2="546"/><line style="stroke:#181818;stroke-width:0.5;" x1="8" x2="187" y1="554" y2="554"/></g><!--MD5=[960f1678a4869100f94f4b7222590fe5]
class basic_fstream--><g id="elem_basic_fstream"><rect fill="#F1F1F1" height="48" id="basic_fstream" rx="2.5" ry="2.5" style="stroke:#181818;stroke-width:0.5;" width="133" x="351" y="683"/><ellipse cx="366" cy="699" fill="#ADD1B2" rx="11" ry="11" style="stroke:#181818;stroke-width:1.0;"/><path d="M368.3438,694.6719 C367.4063,694.2344 366.8125,694.0938 365.9375,694.0938 C363.3125,694.0938 361.3125,696.1719 361.3125,698.8906 L361.3125,700.0156 C361.3125,702.5938 363.4219,704.4844 366.3125,704.4844 C367.5313,704.4844 368.6875,704.1875 369.4375,703.6406 C370.0156,703.2344 370.3438,702.7813 370.3438,702.3906 C370.3438,701.9375 369.9531,701.5469 369.4844,701.5469 C369.2656,701.5469 369.0625,701.625 368.875,701.8125 C368.4219,702.2969 368.4219,702.2969 368.2344,702.3906 C367.8125,702.6563 367.125,702.7813 366.3594,702.7813 C364.3125,702.7813 363.0156,701.6875 363.0156,699.9844 L363.0156,698.8906 C363.0156,697.1094 364.2656,695.7969 366,695.7969 C366.5781,695.7969 367.1875,695.9531 367.6563,696.2031 C368.1406,696.4844 368.3125,696.7031 368.4063,697.1094 C368.4688,697.5156 368.5,697.6406 368.6406,697.7656 C368.7813,697.9063 369.0156,698.0156 369.2344,698.0156 C369.5,698.0156 369.7656,697.875 369.9375,697.6563 C370.0469,697.5 370.0781,697.3125 370.0781,696.8906 L370.0781,695.4688 C370.0781,695.0313 370.0625,694.9063 369.9688,694.75 C369.8125,694.4844 369.5313,694.3438 369.2344,694.3438 C368.9375,694.3438 368.7344,694.4375 368.5156,694.75 L368.3438,694.6719 Z " fill="#000000"/><text fill="#000000" font-family="sans-serif" font-size="14" lengthAdjust="spacing" textLength="101" x="380" y="703.8467">basic_fstream</text><line style="stroke:#181818;stroke-width:0.5;" x1="352" x2="483" y1="715" y2="715"/><line style="stroke:#181818;stroke-width:0.5;" x1="352" x2="483" y1="723" y2="723"/></g><!--MD5=[91762686455e3221ff3028f8d16f4da6]
class basic_stringstream--><g id="elem_basic_stringstream"><rect fill="#F1F1F1" height="48" id="basic_stringstream" rx="2.5" ry="2.5" style="stroke:#181818;stroke-width:0.5;" width="169" x="519" y="683"/><ellipse cx="534" cy="699" fill="#ADD1B2" rx="11" ry="11" style="stroke:#181818;stroke-width:1.0;"/><path d="M536.3438,694.6719 C535.4063,694.2344 534.8125,694.0938 533.9375,694.0938 C531.3125,694.0938 529.3125,696.1719 529.3125,698.8906 L529.3125,700.0156 C529.3125,702.5938 531.4219,704.4844 534.3125,704.4844 C535.5313,704.4844 536.6875,704.1875 537.4375,703.6406 C538.0156,703.2344 538.3438,702.7813 538.3438,702.3906 C538.3438,701.9375 537.9531,701.5469 537.4844,701.5469 C537.2656,701.5469 537.0625,701.625 536.875,701.8125 C536.4219,702.2969 536.4219,702.2969 536.2344,702.3906 C535.8125,702.6563 535.125,702.7813 534.3594,702.7813 C532.3125,702.7813 531.0156,701.6875 531.0156,699.9844 L531.0156,698.8906 C531.0156,697.1094 532.2656,695.7969 534,695.7969 C534.5781,695.7969 535.1875,695.9531 535.6563,696.2031 C536.1406,696.4844 536.3125,696.7031 536.4063,697.1094 C536.4688,697.5156 536.5,697.6406 536.6406,697.7656 C536.7813,697.9063 537.0156,698.0156 537.2344,698.0156 C537.5,698.0156 537.7656,697.875 537.9375,697.6563 C538.0469,697.5 538.0781,697.3125 538.0781,696.8906 L538.0781,695.4688 C538.0781,695.0313 538.0625,694.9063 537.9688,694.75 C537.8125,694.4844 537.5313,694.3438 537.2344,694.3438 C536.9375,694.3438 536.7344,694.4375 536.5156,694.75 L536.3438,694.6719 Z " fill="#000000"/><text fill="#000000" font-family="sans-serif" font-size="14" lengthAdjust="spacing" textLength="137" x="548" y="703.8467">basic_stringstream</text><line style="stroke:#181818;stroke-width:0.5;" x1="520" x2="687" y1="715" y2="715"/><line style="stroke:#181818;stroke-width:0.5;" x1="520" x2="687" y1="723" y2="723"/></g><!--MD5=[344fe770874c50f1e4d9c8897b778d1e]
reverse link ios_base to basic_ios--><g id="link_ios_base_basic_ios"><path codeLine="4" d="M442.5,75.487 C442.5,107.632 442.5,150.138 442.5,175.977 " fill="none" id="ios_base-backto-basic_ios" style="stroke:#181818;stroke-width:1.0;stroke-dasharray:7.0,7.0;"/><polygon fill="none" points="435.5,75.221,442.5,55.221,449.5,75.221,435.5,75.221" style="stroke:#181818;stroke-width:1.0;"/></g><!--MD5=[6533e59fbc76ad05727cca32235a3401]
reverse link basic_ios to basic_ostream--><g id="link_basic_ios_basic_ostream"><path codeLine="6" d="M488.558,236.61 C530.92,269.362 592.489,316.964 628.721,344.977 " fill="none" id="basic_ios-backto-basic_ostream" style="stroke:#181818;stroke-width:1.0;stroke-dasharray:7.0,7.0;"/><polygon fill="none" points="484.075,241.992,472.534,224.221,492.638,230.916,484.075,241.992" style="stroke:#181818;stroke-width:1.0;"/></g><!--MD5=[fbc5f37edc6f3acbb8aed91b13e7a633]
reverse link basic_ios to basic_istream--><g id="link_basic_ios_basic_istream"><path codeLine="8" d="M425.861,243.103 C413.095,275.402 395.958,318.765 385.599,344.977 " fill="none" id="basic_ios-backto-basic_istream" style="stroke:#181818;stroke-width:1.0;stroke-dasharray:7.0,7.0;"/><polygon fill="none" points="419.462,240.248,433.323,224.221,432.482,245.394,419.462,240.248" style="stroke:#181818;stroke-width:1.0;"/></g><!--MD5=[61f7cb464db1212b6609f3c5d175731c]
reverse link basic_istream to basic_iostream--><g id="link_basic_istream_basic_iostream"><path codeLine="11" d="M407.734,408.926 C433.876,441.506 470.296,486.895 492.026,513.977 " fill="none" id="basic_istream-backto-basic_iostream" style="stroke:#181818;stroke-width:1.0;stroke-dasharray:7.0,7.0;"/><polygon fill="none" points="402.189,413.201,395.132,393.221,413.109,404.439,402.189,413.201" style="stroke:#181818;stroke-width:1.0;"/></g><!--MD5=[b49d79ceb36c44932694f936cc87f1e1]
reverse link basic_ostream to basic_iostream--><g id="link_basic_ostream_basic_iostream"><path codeLine="13" d="M624.399,408.478 C595.498,441.09 555.014,486.771 530.904,513.977 " fill="none" id="basic_ostream-backto-basic_iostream" style="stroke:#181818;stroke-width:1.0;stroke-dasharray:7.0,7.0;"/><polygon fill="none" points="619.417,403.546,637.921,393.221,629.895,412.831,619.417,403.546" style="stroke:#181818;stroke-width:1.0;"/></g><!--MD5=[9b503933cab0bb9814da80b5890ce7a0]
reverse link basic_ostream to basic_ostreamstream--><g id="link_basic_ostream_basic_ostreamstream"><path codeLine="17" d="M671.498,412.563 C681.347,444.813 694.502,487.889 702.469,513.977 " fill="none" id="basic_ostream-backto-basic_ostreamstream" style="stroke:#181818;stroke-width:1.0;stroke-dasharray:7.0,7.0;"/><polygon fill="none" points="664.738,414.393,665.591,393.221,678.128,410.304,664.738,414.393" style="stroke:#181818;stroke-width:1.0;"/></g><!--MD5=[a0b074010e58588a72cf8250b78cd489]
reverse link basic_ostream to basic_oftreamstream--><g id="link_basic_ostream_basic_oftreamstream"><path codeLine="18" d="M713.582,403.695 C767.146,436.461 847.069,485.352 893.776,513.923 " fill="none" id="basic_ostream-backto-basic_oftreamstream" style="stroke:#181818;stroke-width:1.0;stroke-dasharray:7.0,7.0;"/><polygon fill="none" points="709.581,409.453,696.173,393.045,716.887,397.511,709.581,409.453" style="stroke:#181818;stroke-width:1.0;"/></g><!--MD5=[c8f68347e67045e82b4d30cdfcc97ac8]
reverse link basic_istream to basic_istreamstream--><g id="link_basic_istream_basic_istreamstream"><path codeLine="21" d="M360.869,412.103 C348.878,444.402 332.779,487.765 323.048,513.977 " fill="none" id="basic_istream-backto-basic_istreamstream" style="stroke:#181818;stroke-width:1.0;stroke-dasharray:7.0,7.0;"/><polygon fill="none" points="354.356,409.534,367.879,393.221,367.481,414.407,354.356,409.534" style="stroke:#181818;stroke-width:1.0;"/></g><!--MD5=[e9fdce08669eb76b751c8ed7022bfe21]
reverse link basic_istream to basic_iftreamstream--><g id="link_basic_istream_basic_iftreamstream"><path codeLine="22" d="M320.565,403.481 C265.823,436.248 183.891,485.289 136.053,513.923 " fill="none" id="basic_istream-backto-basic_iftreamstream" style="stroke:#181818;stroke-width:1.0;stroke-dasharray:7.0,7.0;"/><polygon fill="none" points="317.243,397.311,337.999,393.045,324.434,409.323,317.243,397.311" style="stroke:#181818;stroke-width:1.0;"/></g><!--MD5=[0f70f401b105f58f21316dcdcd3d70c5]
reverse link basic_iostream to basic_fstream--><g id="link_basic_iostream_basic_fstream"><path codeLine="24" d="M487.817,579.732 C469.755,612.166 445.126,656.3922 430.321,682.9766 " fill="none" id="basic_iostream-backto-basic_fstream" style="stroke:#181818;stroke-width:1.0;stroke-dasharray:7.0,7.0;"/><polygon fill="none" points="481.722,576.288,497.569,562.221,493.954,583.1,481.722,576.288" style="stroke:#181818;stroke-width:1.0;"/></g><!--MD5=[91f0e066aabf51ba6b6262d22f6a1f05]
reverse link basic_iostream to basic_stringstream--><g id="link_basic_iostream_basic_stringstream"><path codeLine="25" d="M533.183,579.732 C551.245,612.166 575.874,656.3922 590.679,682.9766 " fill="none" id="basic_iostream-backto-basic_stringstream" style="stroke:#181818;stroke-width:1.0;stroke-dasharray:7.0,7.0;"/><polygon fill="none" points="527.046,583.1,523.431,562.221,539.278,576.288,527.046,583.1" style="stroke:#181818;stroke-width:1.0;"/></g><!--MD5=[d2ef59623323d4e7a454d84a562f8bda]
@startuml
skinparam classAttributeIconSize 0


basic_ios  -up..|> ios_base 

basic_ostream -up..|> basic_ios

basic_istream -up..|> basic_ios


basic_iostream -up..|> basic_istream

basic_iostream -up..|> basic_ostream



basic_ostreamstream -up..|> basic_ostream
basic_oftreamstream -up..|> basic_ostream


basic_istreamstream -up..|> basic_istream
basic_iftreamstream -up..|> basic_istream

basic_fstream -up..|> basic_iostream
basic_stringstream -up..|> basic_iostream
@enduml

PlantUML version 1.2022.6beta1(Unknown compile time)
(GPL source distribution)
Java Runtime: Java(TM) SE Runtime Environment
JVM: Java HotSpot(TM) 64-Bit Server VM
Default Encoding: UTF-8
Language: en
Country: US
--></g></svg>