<svg xmlns="http://www.w3.org/2000/svg" xmlns:xlink="http://www.w3.org/1999/xlink" contentStyleType="text/css" height="386px" preserveAspectRatio="none" style="width:302px;height:386px;background:#FFFFFF;" version="1.1" viewBox="0 0 302 386" width="302px" zoomAndPan="magnify"><defs/><g><!--class RandomAccessIterator--><g id="elem_RandomAccessIterator"><rect codeLine="1" fill="#F1F1F1" height="48" id="RandomAccessIterator" rx="2.5" ry="2.5" style="stroke:#181818;stroke-width:0.5;" width="190.8193" x="52.9" y="7"/><ellipse cx="67.9" cy="23" fill="#ADD1B2" rx="11" ry="11" style="stroke:#181818;stroke-width:1.0;"/><path d="M70.8688,28.6406 Q70.2906,28.9375 69.65,29.0781 Q69.0094,29.2344 68.3063,29.2344 Q65.8063,29.2344 64.4781,27.5938 Q63.1656,25.9375 63.1656,22.8125 Q63.1656,19.6875 64.4781,18.0313 Q65.8063,16.375 68.3063,16.375 Q69.0094,16.375 69.65,16.5313 Q70.3063,16.6875 70.8688,16.9844 L70.8688,19.7031 Q70.2438,19.125 69.65,18.8594 Q69.0563,18.5781 68.4313,18.5781 Q67.0875,18.5781 66.4,19.6563 Q65.7125,20.7188 65.7125,22.8125 Q65.7125,24.9063 66.4,25.9844 Q67.0875,27.0469 68.4313,27.0469 Q69.0563,27.0469 69.65,26.7813 Q70.2438,26.5 70.8688,25.9219 L70.8688,28.6406 Z " fill="#000000"/><text fill="#000000" font-family="sans-serif" font-size="14" lengthAdjust="spacing" textLength="158.8193" x="81.9" y="27.8467">RandomAccessIterator</text><line style="stroke:#181818;stroke-width:0.5;" x1="53.9" x2="242.7193" y1="39" y2="39"/><line style="stroke:#181818;stroke-width:0.5;" x1="53.9" x2="242.7193" y1="47" y2="47"/></g><!--class BidirectionalIterator--><g id="elem_BidirectionalIterator"><rect codeLine="3" fill="#F1F1F1" height="48" id="BidirectionalIterator" rx="2.5" ry="2.5" style="stroke:#181818;stroke-width:0.5;" width="172" x="62.31" y="115"/><ellipse cx="77.31" cy="131" fill="#ADD1B2" rx="11" ry="11" style="stroke:#181818;stroke-width:1.0;"/><path d="M80.2788,136.6406 Q79.7006,136.9375 79.06,137.0781 Q78.4194,137.2344 77.7163,137.2344 Q75.2163,137.2344 73.8881,135.5938 Q72.5756,133.9375 72.5756,130.8125 Q72.5756,127.6875 73.8881,126.0313 Q75.2163,124.375 77.7163,124.375 Q78.4194,124.375 79.06,124.5313 Q79.7163,124.6875 80.2788,124.9844 L80.2788,127.7031 Q79.6538,127.125 79.06,126.8594 Q78.4663,126.5781 77.8413,126.5781 Q76.4975,126.5781 75.81,127.6563 Q75.1225,128.7188 75.1225,130.8125 Q75.1225,132.9063 75.81,133.9844 Q76.4975,135.0469 77.8413,135.0469 Q78.4663,135.0469 79.06,134.7813 Q79.6538,134.5 80.2788,133.9219 L80.2788,136.6406 Z " fill="#000000"/><text fill="#000000" font-family="sans-serif" font-size="14" lengthAdjust="spacing" textLength="140" x="91.31" y="135.8467">BidirectionalIterator</text><line style="stroke:#181818;stroke-width:0.5;" x1="63.31" x2="233.31" y1="147" y2="147"/><line style="stroke:#181818;stroke-width:0.5;" x1="63.31" x2="233.31" y1="155" y2="155"/></g><!--class ForwardIterator--><g id="elem_ForwardIterator"><rect codeLine="5" fill="#F1F1F1" height="48" id="ForwardIterator" rx="2.5" ry="2.5" style="stroke:#181818;stroke-width:0.5;" width="141.4229" x="77.6" y="223"/><ellipse cx="92.6" cy="239" fill="#ADD1B2" rx="11" ry="11" style="stroke:#181818;stroke-width:1.0;"/><path d="M95.5688,244.6406 Q94.9906,244.9375 94.35,245.0781 Q93.7094,245.2344 93.0063,245.2344 Q90.5063,245.2344 89.1781,243.5938 Q87.8656,241.9375 87.8656,238.8125 Q87.8656,235.6875 89.1781,234.0313 Q90.5063,232.375 93.0063,232.375 Q93.7094,232.375 94.35,232.5313 Q95.0063,232.6875 95.5688,232.9844 L95.5688,235.7031 Q94.9438,235.125 94.35,234.8594 Q93.7563,234.5781 93.1313,234.5781 Q91.7875,234.5781 91.1,235.6563 Q90.4125,236.7188 90.4125,238.8125 Q90.4125,240.9063 91.1,241.9844 Q91.7875,243.0469 93.1313,243.0469 Q93.7563,243.0469 94.35,242.7813 Q94.9438,242.5 95.5688,241.9219 L95.5688,244.6406 Z " fill="#000000"/><text fill="#000000" font-family="sans-serif" font-size="14" lengthAdjust="spacing" textLength="109.4229" x="106.6" y="243.8467">ForwardIterator</text><line style="stroke:#181818;stroke-width:0.5;" x1="78.6" x2="218.0229" y1="255" y2="255"/><line style="stroke:#181818;stroke-width:0.5;" x1="78.6" x2="218.0229" y1="263" y2="263"/></g><!--class InputIterator--><g id="elem_InputIterator"><rect codeLine="7" fill="#F1F1F1" height="48" id="InputIterator" rx="2.5" ry="2.5" style="stroke:#181818;stroke-width:0.5;" width="120.6279" x="7" y="331"/><ellipse cx="22" cy="347" fill="#ADD1B2" rx="11" ry="11" style="stroke:#181818;stroke-width:1.0;"/><path d="M24.9688,352.6406 Q24.3906,352.9375 23.75,353.0781 Q23.1094,353.2344 22.4063,353.2344 Q19.9063,353.2344 18.5781,351.5938 Q17.2656,349.9375 17.2656,346.8125 Q17.2656,343.6875 18.5781,342.0313 Q19.9063,340.375 22.4063,340.375 Q23.1094,340.375 23.75,340.5313 Q24.4063,340.6875 24.9688,340.9844 L24.9688,343.7031 Q24.3438,343.125 23.75,342.8594 Q23.1563,342.5781 22.5313,342.5781 Q21.1875,342.5781 20.5,343.6563 Q19.8125,344.7188 19.8125,346.8125 Q19.8125,348.9063 20.5,349.9844 Q21.1875,351.0469 22.5313,351.0469 Q23.1563,351.0469 23.75,350.7813 Q24.3438,350.5 24.9688,349.9219 L24.9688,352.6406 Z " fill="#000000"/><text fill="#000000" font-family="sans-serif" font-size="14" lengthAdjust="spacing" textLength="88.6279" x="36" y="351.8467">InputIterator</text><line style="stroke:#181818;stroke-width:0.5;" x1="8" x2="126.6279" y1="363" y2="363"/><line style="stroke:#181818;stroke-width:0.5;" x1="8" x2="126.6279" y1="371" y2="371"/></g><!--class OutputIterator--><g id="elem_OutputIterator"><rect codeLine="9" fill="#F1F1F1" height="48" id="OutputIterator" rx="2.5" ry="2.5" style="stroke:#181818;stroke-width:0.5;" width="133.0078" x="162.81" y="331"/><ellipse cx="177.81" cy="347" fill="#ADD1B2" rx="11" ry="11" style="stroke:#181818;stroke-width:1.0;"/><path d="M180.7788,352.6406 Q180.2006,352.9375 179.56,353.0781 Q178.9194,353.2344 178.2163,353.2344 Q175.7163,353.2344 174.3881,351.5938 Q173.0756,349.9375 173.0756,346.8125 Q173.0756,343.6875 174.3881,342.0313 Q175.7163,340.375 178.2163,340.375 Q178.9194,340.375 179.56,340.5313 Q180.2163,340.6875 180.7788,340.9844 L180.7788,343.7031 Q180.1538,343.125 179.56,342.8594 Q178.9663,342.5781 178.3413,342.5781 Q176.9975,342.5781 176.31,343.6563 Q175.6225,344.7188 175.6225,346.8125 Q175.6225,348.9063 176.31,349.9844 Q176.9975,351.0469 178.3413,351.0469 Q178.9663,351.0469 179.56,350.7813 Q180.1538,350.5 180.7788,349.9219 L180.7788,352.6406 Z " fill="#000000"/><text fill="#000000" font-family="sans-serif" font-size="14" lengthAdjust="spacing" textLength="101.0078" x="191.81" y="351.8467">OutputIterator</text><line style="stroke:#181818;stroke-width:0.5;" x1="163.81" x2="294.8178" y1="363" y2="363"/><line style="stroke:#181818;stroke-width:0.5;" x1="163.81" x2="294.8178" y1="371" y2="371"/></g><!--reverse link RandomAccessIterator to BidirectionalIterator--><g id="link_RandomAccessIterator_BidirectionalIterator"><path codeLine="11" d="M148.31,73.26 C148.31,90.94 148.31,97.13 148.31,114.79 " fill="none" id="RandomAccessIterator-backto-BidirectionalIterator" style="stroke:#181818;stroke-width:1.0;"/><polygon fill="none" points="148.31,55.26,142.31,73.26,154.31,73.26,148.31,55.26" style="stroke:#181818;stroke-width:1.0;"/></g><!--reverse link BidirectionalIterator to ForwardIterator--><g id="link_BidirectionalIterator_ForwardIterator"><path codeLine="12" d="M148.31,181.26 C148.31,198.94 148.31,205.13 148.31,222.79 " fill="none" id="BidirectionalIterator-backto-ForwardIterator" style="stroke:#181818;stroke-width:1.0;"/><polygon fill="none" points="148.31,163.26,142.31,181.26,154.31,181.26,148.31,163.26" style="stroke:#181818;stroke-width:1.0;"/></g><!--reverse link ForwardIterator to InputIterator--><g id="link_ForwardIterator_InputIterator"><path codeLine="13" d="M119.611,285.5623 C106.101,303.2423 98.54,313.13 85.05,330.79 " fill="none" id="ForwardIterator-backto-InputIterator" style="stroke:#181818;stroke-width:1.0;"/><polygon fill="none" points="130.54,271.26,114.8436,281.9193,124.3785,289.2053,130.54,271.26" style="stroke:#181818;stroke-width:1.0;"/></g><!--reverse link ForwardIterator to OutputIterator--><g id="link_ForwardIterator_OutputIterator"><path codeLine="14" d="M177.0139,285.5662 C190.5139,303.2462 198.08,313.13 211.58,330.79 " fill="none" id="ForwardIterator-backto-OutputIterator" style="stroke:#181818;stroke-width:1.0;"/><polygon fill="none" points="166.09,271.26,172.2451,289.2075,181.7826,281.925,166.09,271.26" style="stroke:#181818;stroke-width:1.0;"/></g><!--SRC=[Iyv9B2vM24hCIydFTKnEJYqkzYn9BKeioI_Yuae6opbbfcGMfIQNPERd9UQWIxhb5vKd5gMW2tlc5PIMe0lwbvQWY6ApLC6cHbSNXvLOHI4Qq9s1neSeGdKKLYMeJWG0]--></g></svg>